# xmcd CD database file
#
# Track frame offsets:
#	150
#	15465
#	27948
#	45485
#	60843
#	80252
#	96954
#	112658
#	133255
#	145012
#
# Disc length: 2096 seconds
#
# Revision: 0
# Processed by: cddbd v1.5.2PL0 Copyright (c) Steve Scherf et al.
# Submitted via: CDex 1.70beta2
#
DISCID=6f082e0a
DTITLE=ししまいブラザーズ - 此花
DYEAR=2008
DGENRE=東方アレンジ
TTITLE0=野いちご (幺樂団の歴史4より「Strawberry Crisis!!」)
TTITLE1=勿忘草 (東方妖々夢より「アルティメットトゥルース」)
TTITLE2=細桜 (蓬莱人形より「桜花之恋塚 ～ Japanese Flower」)
TTITLE3=朝顔 (東方風神録より「明日ハレの日、ケの昨日」)
TTITLE4=春車菊 (東方妖々夢より「幽霊楽団 ～ Phantom Ensemble」)
TTITLE5=黄薔薇 (東方地霊殿より「緑眼のジェラシー」)
TTITLE6=スターチス (東方夢時空より「Reincarnation」)
TTITLE7=パセリ (大空魔術より「Demystify Feast」)
TTITLE8=向日葵 (東方花映塚より「今昔幻想郷 ～ Flower Land」)
TTITLE9=夜桜 (東方妖々夢より「幽雅に咲かせ、墨染の桜 ～ Border of Life」)
EXTD=YEAR: 2008
EXTT0=
EXTT1=
EXTT2=
EXTT3=
EXTT4=
EXTT5=
EXTT6=
EXTT7=
EXTT8=
EXTT9=
PLAYORDER=
